<svg version="1.0" xmlns="http://www.w3.org/2000/svg"
 width="1344.000000pt" height="300.000000pt" viewBox="0 0 1344.000000 300.000000"
 preserveAspectRatio="xMidYMid meet">

<g transform="translate(0.000000,300.000000) scale(0.100000,-0.100000)"
fill="#000000" stroke="none">
<path d="M1410 2807 c0 -2 15 -16 33 -33 l32 -29 -29 33 c-28 30 -36 37 -36
29z"/>
<path d="M2725 2727 c-9 -45 -55 -327 -55 -342 0 -11 60 -54 60 -43 0 2 14 84
30 182 17 98 30 184 30 190 0 7 -14 17 -30 23 -27 10 -30 9 -35 -10z"/>
<path d="M1510 2695 c13 -14 26 -25 28 -25 3 0 -5 11 -18 25 -13 14 -26 25
-28 25 -3 0 5 -11 18 -25z"/>
<path d="M1580 2615 c13 -14 26 -25 28 -25 3 0 -5 11 -18 25 -13 14 -26 25
-28 25 -3 0 5 -11 18 -25z"/>
<path d="M1610 2576 c0 -2 8 -10 18 -17 15 -13 16 -12 3 4 -13 16 -21 21 -21
13z"/>
<path d="M1675 2299 c-306 -66 -558 -221 -705 -434 -78 -113 -130 -272 -130
-396 l0 -49 -100 0 -100 0 0 -25 0 -25 140 0 140 0 -3 29 c-6 48 11 160 33
226 49 146 194 326 345 426 197 131 399 195 646 206 195 8 383 -24 563 -96
l78 -31 129 47 c71 27 129 51 129 55 0 3 -17 16 -37 28 l-37 22 -123 -46 -123
-45 -43 18 c-84 36 -199 71 -303 91 -142 27 -370 27 -499 -1z"/>
<path d="M9500 1915 c32 -83 -9 -202 -89 -260 -97 -71 -212 -82 -315 -31 -27
14 -52 23 -54 21 -12 -12 92 -95 142 -114 141 -53 299 6 362 134 23 48 26 64
21 115 -3 39 -14 76 -31 104 -31 53 -51 70 -36 31z"/>
<path d="M2454 1895 c2 -11 7 -30 11 -43 3 -12 1 -48 -5 -79 -11 -49 -20 -65
-69 -114 -62 -62 -125 -89 -206 -89 -55 0 -135 25 -170 52 -25 19 -27 20 -17
2 22 -41 88 -95 141 -115 44 -16 71 -20 126 -17 128 8 198 63 239 186 25 74
26 80 11 127 -15 50 -71 132 -61 90z"/>
<path d="M1773 1879 c-39 -11 -70 -49 -79 -95 -9 -47 9 -111 83 -314 123 -334
131 -467 39 -624 -93 -159 -365 -280 -685 -306 -333 -27 -706 54 -850 183
l-24 22 12 -22 c53 -103 264 -206 506 -249 120 -21 397 -24 523 -5 270 40 506
164 584 308 86 159 76 288 -46 615 -31 81 -63 176 -72 212 -28 113 -1 175 85
197 49 12 61 25 61 72 0 14 -9 17 -52 16 -29 0 -67 -5 -85 -10z"/>
<path d="M8900 1871 c-137 -42 -189 -147 -230 -463 -11 -86 -29 -185 -40 -220
-53 -169 -168 -291 -364 -384 l-91 -44 116 0 117 0 58 44 c78 58 125 108 168
180 51 85 73 162 96 336 37 286 85 403 183 451 41 20 42 22 39 65 -4 45 -8 48
-52 35z"/>
<path d="M3711 1784 c11 -56 0 -109 -34 -167 -75 -128 -281 -167 -407 -77 -31
22 -32 22 -21 3 6 -12 32 -39 57 -62 111 -97 288 -93 394 10 52 51 73 99 73
169 0 57 -27 134 -55 158 -14 11 -15 7 -7 -34z"/>
<path d="M240 1744 c211 -104 320 -153 320 -145 0 10 -374 190 -409 196 -14 3
26 -20 89 -51z"/>
<path d="M2909 1763 c-6 -16 -60 -167 -121 -338 -60 -170 -138 -389 -173 -485
l-63 -175 40 -3 c48 -4 49 -3 82 93 13 39 54 153 91 255 128 355 235 661 235
670 0 6 -18 10 -40 10 -35 0 -42 -4 -51 -27z"/>
<path d="M11512 1738 c-70 -188 -342 -958 -342 -968 0 -9 12 -11 42 -6 23 4
43 8 44 9 1 2 102 285 132 372 6 17 27 75 47 130 97 265 175 489 175 501 0 10
-12 14 -39 14 -39 0 -40 -1 -59 -52z"/>
<path d="M12894 1471 c-1 -27 -11 -69 -22 -93 l-20 -45 44 -112 c93 -236 103
-335 46 -417 l-32 -44 55 0 c61 0 75 13 75 72 0 53 -36 184 -84 308 -40 103
-43 117 -31 140 41 80 38 171 -7 216 l-23 24 -1 -49z"/>
<path d="M4932 1118 c-24 -71 -42 -131 -40 -133 2 -2 31 22 65 53 47 44 63 66
68 95 8 42 -8 93 -34 106 -13 7 -23 -12 -59 -121z"/>
<path d="M5584 1203 c-4 -21 -38 -124 -75 -230 -38 -105 -69 -196 -69 -203 0
-7 15 -10 42 -8 l43 3 48 135 c69 192 79 235 67 282 -6 21 -19 42 -30 48 -17
9 -20 6 -26 -27z"/>
<path d="M1200 1204 c6 -14 15 -34 20 -45 10 -18 5 -19 -173 -19 -210 0 -269
-8 -347 -48 -73 -38 -100 -78 -100 -151 0 -44 6 -65 25 -94 30 -43 37 -46 35
-14 -6 74 0 90 49 138 74 71 114 81 367 88 l212 6 -39 83 c-21 45 -42 82 -48
82 -7 0 -7 -8 -1 -26z"/>
<path d="M3519 1203 c-6 -16 -38 -104 -71 -198 -33 -93 -66 -187 -74 -208
l-13 -38 46 3 46 3 42 120 c24 66 61 171 83 233 l41 112 -45 0 c-39 0 -46 -3
-55 -27z"/>
<path d="M4336 1222 c-9 -15 -86 -235 -83 -238 1 -2 28 17 59 43 48 39 60 55
82 115 14 38 26 73 26 79 0 11 -77 12 -84 1z"/>
<path d="M10517 1223 c-6 -10 -167 -452 -167 -458 0 -3 20 -5 44 -5 33 0 45 4
49 18 3 9 39 111 81 225 42 114 76 212 76 218 0 11 -77 12 -83 2z"/>
<path d="M6275 991 c-42 -127 -47 -153 -37 -175 6 -13 20 -30 31 -35 18 -10
23 -1 68 134 l47 145 63 0 63 0 20 40 20 40 -113 0 -113 0 -49 -149z"/>
<path d="M6890 1096 c0 -61 -18 -103 -66 -148 l-38 -38 -126 0 -126 0 -17 -35
c-9 -20 -17 -38 -17 -40 0 -3 78 -5 173 -5 l174 0 38 37 c45 44 65 88 65 144
0 43 -22 100 -46 120 -12 10 -14 4 -14 -35z"/>
<path d="M9840 1039 c-17 -56 -37 -125 -43 -155 -10 -50 -10 -55 13 -79 13
-14 27 -25 31 -25 4 0 15 26 24 58 9 31 28 94 41 140 l25 82 74 0 c69 0 73 1
79 24 3 13 9 31 12 40 5 14 -8 16 -110 16 l-115 0 -31 -101z"/>
<path d="M11881 1082 c-19 -98 -73 -196 -149 -272 -158 -157 -393 -228 -727
-218 -71 2 -138 8 -149 12 -17 9 -17 8 -1 -23 29 -57 77 -71 250 -71 330 0
530 64 685 220 84 83 122 151 148 261 l17 69 188 0 188 0 42 40 42 39 -261 1
-261 0 -12 -58z"/>
<path d="M12490 1010 c-44 -39 -62 -49 -90 -50 -28 0 -44 -9 -75 -40 l-39 -40
104 0 105 1 43 38 c23 21 42 44 42 51 0 20 -23 90 -29 90 -3 0 -31 -22 -61
-50z"/>
<path d="M4278 801 c-118 -98 -225 -184 -239 -192 -13 -7 -69 -15 -123 -18
l-99 -6 -13 -37 -13 -38 128 0 c70 0 143 5 161 11 49 17 342 264 358 302 25
57 61 157 57 157 -2 0 -100 -80 -217 -179z"/>
<path d="M5014 887 c-219 -186 -300 -249 -361 -279 -55 -27 -70 -30 -128 -26
-36 2 -65 2 -65 0 0 -1 7 -16 15 -31 30 -59 145 -71 236 -25 62 31 89 51 251
186 l117 98 26 82 c14 44 24 82 22 84 -2 2 -53 -38 -113 -89z"/>
<path d="M11466 947 c3 -10 9 -15 12 -12 3 3 0 11 -7 18 -10 9 -11 8 -5 -6z"/>
<path d="M5880 682 c-31 -2 -51 -11 -70 -29 -53 -54 -74 -58 -358 -61 -163 -2
-275 0 -293 7 -36 12 -37 2 -3 -38 41 -49 72 -53 364 -49 252 3 267 4 307 26
45 24 93 84 93 116 0 17 8 13 43 -21 56 -55 131 -89 244 -108 76 -13 161 -15
481 -13 l388 3 59 30 c48 24 60 36 65 60 4 17 12 40 19 53 11 21 10 22 -24 22
-24 0 -51 -11 -85 -34 -80 -55 -115 -58 -553 -54 -364 4 -398 6 -471 26 -44
12 -98 32 -120 45 -30 16 -54 21 -86 19z"/>
<path d="M9910 658 c-19 -17 -60 -42 -90 -57 -47 -22 -68 -26 -145 -26 -79 0
-96 3 -137 27 -27 15 -48 23 -48 18 0 -20 56 -73 104 -98 44 -23 63 -27 141
-27 82 0 97 3 156 32 35 18 75 43 87 56 l23 24 -26 39 c-14 21 -27 39 -28 40
-1 1 -18 -12 -37 -28z"/>
<path d="M2907 645 c-71 -51 -121 -57 -417 -53 -193 2 -260 0 -260 -9 0 -19
58 -62 93 -68 18 -4 149 -5 292 -3 l260 3 56 27 c31 16 63 36 73 47 16 17 16
20 -6 54 -13 20 -27 36 -33 36 -5 0 -31 -15 -58 -34z"/>
<path d="M3725 654 c-16 -13 -55 -33 -85 -45 -51 -19 -72 -20 -327 -17 -150 2
-273 -1 -273 -5 0 -5 13 -21 28 -37 39 -39 72 -42 367 -38 l250 3 52 27 c66
35 74 48 29 48 l-35 0 15 42 c8 22 13 42 12 44 -2 1 -16 -9 -33 -22z"/>
<path d="M9343 650 c-62 -56 -29 -54 -1085 -58 l-976 -2 -11 -32 c-6 -17 -11
-35 -11 -40 0 -5 444 -7 1023 -6 1012 3 1022 3 1067 24 45 21 110 84 110 107
0 45 -71 49 -117 7z"/>
<path d="M10713 650 c-57 -52 -109 -60 -382 -60 -136 0 -261 4 -279 9 -27 8
-32 7 -32 -8 0 -26 43 -61 87 -72 21 -5 149 -9 284 -9 282 0 326 8 391 68 l40
37 -19 33 c-23 40 -48 41 -90 2z"/>
<path d="M13256 649 c-76 -57 -97 -59 -586 -59 -352 0 -457 3 -500 14 -30 8
-57 12 -59 10 -10 -10 38 -60 75 -79 37 -19 59 -20 539 -20 l500 0 51 27 c48
25 104 78 104 98 0 5 3 15 6 24 5 13 -2 16 -42 15 -38 0 -58 -7 -88 -30z"/>
<path d="M13330 210 c0 -20 -7 -20 -6590 -20 l-6590 0 0 -42 0 -43 6620 -3
6620 -3 0 65 0 66 -30 0 c-23 0 -30 -4 -30 -20z"/>
</g>
</svg>
